<?xml version="1.0" encoding="UTF-8" standalone="no"?>
<!-- Created with Inkscape (http://www.inkscape.org/) -->

<svg
   width="297mm"
   height="210mm"
   viewBox="0 0 297 210"
   version="1.1"
   id="svg565"
   inkscape:version="1.2 (dc2aedaf03, 2022-05-15)"
   sodipodi:docname="fenrir_logo.svg"
   xmlns:inkscape="http://www.inkscape.org/namespaces/inkscape"
   xmlns:sodipodi="http://sodipodi.sourceforge.net/DTD/sodipodi-0.dtd"
   xmlns="http://www.w3.org/2000/svg"
   xmlns:svg="http://www.w3.org/2000/svg">
  <sodipodi:namedview
     id="namedview567"
     pagecolor="#ffffff"
     bordercolor="#666666"
     borderopacity="1.0"
     inkscape:showpageshadow="2"
     inkscape:pageopacity="0.0"
     inkscape:pagecheckerboard="0"
     inkscape:deskcolor="#d1d1d1"
     inkscape:document-units="mm"
     showgrid="false"
     inkscape:zoom="0.78349551"
     inkscape:cx="411.61691"
     inkscape:cy="432.03821"
     inkscape:window-width="1920"
     inkscape:window-height="1016"
     inkscape:window-x="0"
     inkscape:window-y="27"
     inkscape:window-maximized="1"
     inkscape:current-layer="layer1" />
  <defs
     id="defs562">
    <rect
       x="405.02446"
       y="271.8064"
       width="618.08208"
       height="63.204882"
       id="rect695" />
    <rect
       x="368.35308"
       y="271.64189"
       width="584.3951"
       height="184.22699"
       id="rect636" />
  </defs>
  <g
     inkscape:label="Layer 1"
     inkscape:groupmode="layer"
     id="layer1">
    <path
       d="m 58.18512,105.8911 -1.005551,-2.52569 -1.006864,2.52569 1.006864,2.527 z M 47.829,90.554513 l 0.06039,1.184082 c 2.244766,2.110865 4.77308,3.942121 7.54819,5.531833 0,0 -0.270425,-9.98461 -3.998573,-18.283678 0,0 1.375743,10.118509 1.375743,13.580174 L 50.995304,91.390723 50.806271,89.191902 C 48.698026,86.737098 38.125313,81.738228 32.32568,64.814535 c 0,0 0.518527,13.8611 15.50332,25.739978 z m 7.574442,13.580157 c 0,0 0.148339,-1.76037 -0.177219,-3.77147 -0.325557,-2.012398 -2.781669,-3.269992 -6.656843,-5.962393 -3.876488,-2.692405 -6.835377,-6.805183 -6.835377,-6.805183 0.393817,2.672716 1.714424,5.651294 2.470556,7.200314 -1.056746,-0.861149 -5.026437,-4.351693 -6.234148,-9.107708 0,0 -2.053107,6.784178 0.199535,10.916651 2.272333,4.170519 2.928697,6.512429 2.786923,6.566249 0.400382,-0.22054 0.110269,-3.435407 -0.908408,-6.698839 -0.756132,-2.423293 -0.236292,-3.594248 -0.236292,-3.594248 0,0 1.064623,1.864073 4.127219,3.771468 3.061283,1.908698 4.556481,2.944432 4.896476,7.485159 0,0 0.550034,-2.08855 0.126023,-4.12722 h 0.0015 l -0.0026,-0.004 c -0.09452,-0.458137 -0.238918,-0.913654 -0.450267,-1.341601 -0.220539,-0.446327 -0.504089,-0.854584 -0.817827,-1.223454 -0.301928,-0.622224 -0.581541,-1.290411 -0.752195,-1.997971 0,0 5.793069,2.643828 7.095297,4.700866 0.542156,0.8559 1.33898,4.02351 1.36786,3.99332 z m -15.414054,3.04815 c 0.443702,-3.04684 -1.698671,-7.710957 -3.343519,-10.177562 -0.651114,-0.976666 -4.847906,-2.702904 -8.107411,-3.461663 4.822964,3.490543 9.015818,7.680755 11.45093,13.639225 z m 5.103889,-3.27788 c 0,0 1.61203,5.28242 3.25294,6.19214 2.744913,1.52014 3.869923,2.24083 5.689365,4.37139 0,0 -0.86509,-4.43833 -3.661199,-7.41167 -1.377052,-1.46369 -5.281106,-3.15186 -5.281106,-3.15186 z M 66.528819,90.554513 C 81.513615,78.675635 82.032142,64.814535 82.032142,64.814535 76.232509,81.738228 65.661106,86.737098 63.551551,89.191902 l -0.189033,2.198821 -1.819441,1.176201 c 0,-3.461665 1.375739,-13.580174 1.375739,-13.580174 -3.728149,8.299068 -3.99857,18.283678 -3.99857,18.283678 2.775107,-1.589712 5.303421,-3.420968 7.5495,-5.531833 z m 9.821836,17.604987 c 0,0 -1.478133,0.85721 -4.422584,1.13813 0.420073,-0.96223 1.092189,-3.02978 1.352109,-4.94373 -1.004237,1.96909 -2.376035,4.19285 -3.570619,5.52133 l -4.024826,2.43511 c -0.799453,0.48309 -1.356046,1.28517 -1.528014,2.20408 l -2.315653,12.32127 c -0.103708,0.55265 -0.466018,1.02261 -0.974044,1.26415 l -3.687455,1.74593 -3.687457,-1.74593 c -0.509339,-0.24154 -0.871653,-0.7115 -0.975357,-1.26415 l -2.315653,-12.32127 c -0.171968,-0.91891 -0.728566,-1.72099 -1.528015,-2.20408 l -4.023512,-2.43511 c -1.195897,-1.32848 -2.566386,-3.55224 -3.571936,-5.52133 0.261233,1.91395 0.932036,3.9815 1.352109,4.94373 -2.943135,-0.28092 -4.42258,-1.13813 -4.42258,-1.13813 -2.420671,-1.83257 -5.459638,-5.65918 -6.391675,-6.83538 1.157827,3.21356 2.91557,6.00442 5.207594,9.08277 3.539115,0.75219 7.814673,1.71179 9.880907,3.58506 0.379379,0.34394 0.626171,0.80602 0.728565,1.30879 l 2.702906,13.14041 c 0.114209,0.55398 0.462081,1.03181 0.955665,1.30879 l 4.87941,2.74492 c 0.750885,0.4227 1.66717,0.4227 2.416737,0 l 4.879411,-2.74492 c 0.493588,-0.27698 0.841461,-0.75481 0.95567,-1.30879 l 2.702905,-13.14041 c 0.102395,-0.50277 0.3505,-0.96485 0.729879,-1.30879 2.06492,-1.87327 6.341789,-2.83287 9.879592,-3.58506 2.292023,-3.07835 4.049768,-5.86921 5.207595,-9.08277 -0.932036,1.1762 -3.971004,5.00281 -6.391674,6.83538 z m 9.468709,-14.615905 c -3.259504,0.758759 -7.456298,2.484997 -8.107412,3.461663 -1.644847,2.466605 -3.787222,7.130722 -3.343519,10.177562 2.436425,-5.95847 6.627965,-10.148682 11.450931,-13.639225 z M 76.388722,85.68823 c -1.209022,4.756015 -5.178712,8.246559 -6.235458,9.107708 0.757445,-1.54902 2.076735,-4.527598 2.470555,-7.200314 0,0 -2.958892,4.112778 -6.835376,6.805183 -3.875178,2.692401 -6.331292,3.949995 -6.656849,5.962393 -0.325557,2.0111 -0.177218,3.77147 -0.177218,3.77147 0.02888,0.0302 0.825709,-3.13742 1.367865,-3.99332 1.302224,-2.057028 7.09661,-4.700862 7.09661,-4.700862 -0.171967,0.70756 -0.45158,1.375743 -0.753508,1.997967 -0.313742,0.36888 -0.597292,0.777137 -0.817827,1.223464 -0.211353,0.427937 -0.354437,0.883454 -0.450267,1.341601 l -0.0026,0.004 h 0.0015 c -0.424011,2.03866 0.126023,4.12721 0.126023,4.12721 0.341308,-4.540717 1.835193,-5.576461 4.897789,-7.485149 3.06128,-1.907402 4.127217,-3.771475 4.127217,-3.771475 0,0 0.51984,1.170955 -0.237605,3.594255 -1.018675,3.263422 -1.308788,6.478289 -0.908407,6.698829 -0.141774,-0.0538 0.51459,-2.39573 2.788235,-6.566249 2.25133,-4.13257 0.199534,-10.916748 0.199534,-10.916748 z M 63.983439,107.0568 c 1.377053,-1.46369 5.28242,-3.15186 5.28242,-3.15186 0,0 -1.613344,5.28242 -3.254253,6.19214 -2.744918,1.52014 -3.869924,2.24083 -5.689365,4.37139 0,0 0.866399,-4.43833 3.661198,-7.41167"
       style="fill:#e50914;fill-opacity:1;fill-rule:nonzero;stroke:none;stroke-width:0.0131273"
       id="path268"
       sodipodi:nodetypes="cccccccccccccccccccccccccccccccccccccccccccccccccccccccccccccccccccccccsccccccccccccccccccccccccccccccccccccccccc" />
    <g
       id="g703"
       transform="translate(-3.0929559,-8.9739046)">
      <text
         xml:space="preserve"
         transform="matrix(0.33146922,0,0,0.33146922,-30.998731,-3.4636212)"
         id="text634"
         style="font-style:normal;font-weight:normal;font-size:159.643px;line-height:1.25;font-family:sans-serif;white-space:pre;shape-inside:url(#rect636);display:inline;fill:#e50914;fill-opacity:1;stroke:none"><tspan
           x="368.35352"
           y="412.88922"
           id="tspan5639"><tspan
             style="font-stretch:semi-condensed;font-size:119.732px;font-family:'DejaVu Sans';-inkscape-font-specification:'DejaVu Sans Semi-Condensed'"
             id="tspan5637">FENRIR</tspan></tspan></text>
      <text
         xml:space="preserve"
         transform="matrix(0.26458333,0,0,0.26458333,-13.196027,17.882202)"
         id="text693"
         style="font-style:normal;font-weight:normal;font-size:40px;line-height:1.25;font-family:sans-serif;white-space:pre;shape-inside:url(#rect695);display:inline;fill:#2b3252;fill-opacity:1;stroke:none"><tspan
           x="405.02539"
           y="308.58746"
           id="tspan5643"><tspan
             style="font-weight:300;font-family:'Roboto Condensed';-inkscape-font-specification:'Roboto Condensed,  Light'"
             id="tspan5641">PROJECT</tspan></tspan></text>
    </g>
  </g>
</svg>
